<?xml version="1.0" encoding="UTF-8" standalone="no"?>
<svg
   viewBox="0 0 800 500"
   version="1.1"
   id="svg7"
   sodipodi:docname="Bellcurve.svg"
   xml:space="preserve"
   inkscape:version="1.3.2 (1:1.3.2+202311252150+091e20ef0f)"
   xmlns:inkscape="http://www.inkscape.org/namespaces/inkscape"
   xmlns:sodipodi="http://sodipodi.sourceforge.net/DTD/sodipodi-0.dtd"
   xmlns="http://www.w3.org/2000/svg"
   xmlns:svg="http://www.w3.org/2000/svg"><sodipodi:namedview
     id="namedview7"
     pagecolor="#ffffff"
     bordercolor="#000000"
     borderopacity="0.25"
     inkscape:showpageshadow="2"
     inkscape:pageopacity="0.0"
     inkscape:pagecheckerboard="0"
     inkscape:deskcolor="#d1d1d1"
     inkscape:zoom="1.50125"
     inkscape:cx="400"
     inkscape:cy="249.79184"
     inkscape:window-width="2186"
     inkscape:window-height="1440"
     inkscape:window-x="70"
     inkscape:window-y="27"
     inkscape:window-maximized="1"
     inkscape:current-layer="svg7" /><defs
     id="defs7"><linearGradient
       id="g"><stop
         offset="24.999999%"
         stop-color="rgb(0,10,100)"
         id="stop1" /><stop
         offset="25.000001%"
         stop-color="rgb(0,10,155)"
         id="stop2" /><stop
         offset="49.999999%"
         stop-color="rgb(0,10,155)"
         id="stop3" /><stop
         offset="50.000001%"
         stop-color="rgb(0,10,205)"
         id="stop4" /><stop
         offset="74.999999%"
         stop-color="rgb(0,10,205)"
         id="stop5" /><stop
         offset="75.000001%"
         stop-color="rgb(0,10,255)"
         id="stop6" /><stop
         offset="100%"
         stop-color="rgb(0,10,255)"
         id="stop7" /></linearGradient></defs><path
     d="M10,490C230,490 290,10 400,10C500,10 560,490 790,490v5H10z"
     fill="url(#g)"
     id="path7" /><path
     d="m 412.23834,223.65458 -8.04641,87.09701 q -1.94278,22.75984 -1.94278,45.52132 0,43.39701 9.15783,52.80493 9.43491,9.10443 21.36734,9.10443 26.63914,0 31.63539,-36.72105 h 10.26761 q -9.15783,84.36505 -61.3268,84.36505 -54.66664,0 -54.66664,-68.58417 0,-34.59509 6.10287,-86.18636 l 10.26761,-87.40002 h -27.47185 q -22.75418,0 -35.51886,8.4976 -12.48732,8.19377 -23.30982,33.38143 h -9.98979 q 8.88001,-33.38143 21.08876,-52.80493 12.21025,-19.72651 23.30982,-26.40246 11.10032,-6.97995 33.02224,-6.97995 h 136.52806 v 44.30766 z"
     id="path1"
     style="stroke-width:1.5662;fill:#f2f2f2" /></svg>
